<?xml version="1.0" encoding="utf-8"?>
<!-- Generator: Adobe Illustrator 24.0.2, SVG Export Plug-In . SVG Version: 6.00 Build 0)  -->
<svg version="1.1" xmlns="http://www.w3.org/2000/svg" xmlns:xlink="http://www.w3.org/1999/xlink" x="0px" y="0px"
	 viewBox="0 0 31.1 31.1" style="enable-background:new 0 0 31.1 31.1;" xml:space="preserve">
<style type="text/css">
	.st0{fill:url(#SVGID_1_);}
	.st1{fill:#FFFFFF;}
</style>
<g id="BACKGROUND">
</g>
<g id="ELEMENTS">
	<g>
		
			<linearGradient id="SVGID_1_" gradientUnits="userSpaceOnUse" x1="147.6737" y1="-25.444" x2="185.4929" y2="12.3752" gradientTransform="matrix(0 1 -1 0 5.0233 -147.052)">
			<stop  offset="1.104800e-03" style="stop-color:#FBE18A"/>
			<stop  offset="0.2094" style="stop-color:#FCBB45"/>
			<stop  offset="0.3765" style="stop-color:#F75274"/>
			<stop  offset="0.5238" style="stop-color:#D53692"/>
			<stop  offset="0.7394" style="stop-color:#8F39CE"/>
			<stop  offset="1" style="stop-color:#5B4FE9"/>
		</linearGradient>
		<path class="st0" d="M0.9,22.5l0-13.9c0-4.2,3.4-7.6,7.6-7.6l13.9,0c4.2,0,7.6,3.4,7.6,7.6l0,13.9c0,4.2-3.4,7.6-7.6,7.6l-13.9,0
			C4.4,30.2,0.9,26.7,0.9,22.5z"/>
		<g>
			<path class="st1" d="M20.1,10c-0.6,0-1,0.4-1,1c0,0.6,0.5,1,1,1c0.6,0,1-0.5,1-1C21.1,10.5,20.6,10,20.1,10z"/>
			<path class="st1" d="M15.6,11.3c-2.3,0-4.2,1.9-4.2,4.2c0,2.3,1.9,4.2,4.2,4.2c2.3,0,4.2-1.9,4.2-4.2
				C19.8,13.2,17.9,11.3,15.6,11.3z M15.6,18.2c-1.5,0-2.7-1.2-2.7-2.7s1.2-2.7,2.7-2.7c1.5,0,2.7,1.2,2.7,2.7S17.1,18.2,15.6,18.2z
				"/>
			<path class="st1" d="M19,24.1h-6.8C9.3,24.1,7,21.8,7,19v-6.8C7,9.3,9.3,7,12.1,7H19c2.8,0,5.1,2.3,5.1,5.1V19
				C24.1,21.8,21.8,24.1,19,24.1z M12.1,8.6c-2,0-3.5,1.6-3.5,3.5V19c0,2,1.6,3.5,3.5,3.5H19c2,0,3.5-1.6,3.5-3.5v-6.8
				c0-2-1.6-3.5-3.5-3.5H12.1z"/>
		</g>
	</g>
</g>
</svg>
